PathFileType	4	(X/Y/Z)	0_coords_data.trc
DataRate	CameraRate	NumFrames	NumMarkers	Units	OrigDataRate	OrigDataStartFrame	OrigNumFrames
30.0	30.0	5	21	m	30.0	47	65
Frame#	Time	THUMB_TIP	THUMB_IP	THUMB_MCP	THUMB_CMC	INDEX_TIP	INDEX_DIP	INDEX_PIP	INDEX_MCP	MIDDLE_TIP	MIDDLE_DIP	MIDDLE_PIP	MIDDLE_MCP	RING_TIP	RING_DIP	RING_PIP	RING_MCP	PINKY_TIP	PINKY_DIP	PINKY_PIP	PINKY_MCP	WRIST
X1	Y1	Z1	X2	Y2	Z2	X3	Y3	Z3	X4	Y4	Z4	X5	Y5	Z5	X6	Y6	Z6	X7	Y7	Z7	X8	Y8	Z8	X9	Y9	Z9	X10	Y10	Z10	X11	Y11	Z11	X12	Y12	Z12	X13	Y13	Z13	X14	Y14	Z14	X15	Y15	Z15	X16	Y16	Z16	X17	Y17	Z17	X18	Y18	Z18	X19	Y19	Z19	X20	Y20	Z20	X21	Y21	Z21
45	1.5333333333333266	0.5198471500028156	-0.007086488712035988	-0.15487086065430777	0.5048046422341862	-0.010886050908512246	-0.13792133891634017	0.47953244083922997	-0.014610170921013355	-0.12013744826256992	0.4764470075443279	-0.024825832821707472	-0.07682451308942082	0.5775719675993709	0.02890444024016081	-0.15173482936536722	0.5627720661303826	0.03325487983228015	-0.14224606802030443	0.5416156650979589	0.03547468335867565	-0.1288487175113619	0.5073274179102036	0.023007864357018182	-0.10688213783287495	0.599578708740872	0.02927687358789066	-0.12957654797737217	0.5840827767473413	0.031605817021198024	-0.12049623332773998	0.5586625561607947	0.033538781621728186	-0.1063722967948744	0.5196687369006426	0.022850107270322884	-0.08736224100547171	0.603888223154953	0.023401735063586337	-0.10125341684157246	0.588600232971954	0.027004881584471896	-0.09240498809328318	0.5662472874212099	0.029817663946653528	-0.08179301091706989	0.5302126115173825	0.01460499536035953	-0.07155593706807753	0.5980810394144862	0.0036030776829014677	-0.07380831425034726	0.5849078519577443	0.009151818184675808	-0.06439138210269393	0.5660334916886538	0.01311106496326131	-0.056091086422488334	0.5319554068999836	0.0013996376528970789	-0.05453865011453207	0.462283081001861	-0.023011742144276925	-0.051989820119430985
46	1.5666666666666598	0.5163625099209147	-0.004590747103297654	-0.15748823109325494	0.5037652593989161	-0.009551437440553978	-0.13892211058670162	0.479486740689138	-0.014103714411042634	-0.11998404564746068	0.47649276998306367	-0.024860249036690596	-0.0767958169009792	0.5788679221994741	0.03041725544169893	-0.1518597924453431	0.5637236885746926	0.033251589104481116	-0.1423404048281665	0.5424080964247943	0.03407089209243075	-0.12903686744470605	0.5079286728031926	0.022260167495850136	-0.10700706433106319	0.6012639240596985	0.03191617035892724	-0.1283926730901791	0.5852530616995886	0.03219970844405673	-0.11993265579469459	0.5594054053315318	0.03217028911718067	-0.10646761421354595	0.5202288802198792	0.021988430003429427	-0.08755524931214423	0.6056005950720205	0.025710944586846307	-0.09999174494327845	0.5896387617588599	0.027397926483871293	-0.09178358014461693	0.5668579910121596	0.028614785515329588	-0.08179680302264955	0.5306419587365756	0.01373931245429072	-0.07170521536638053	0.6000697565225467	0.005565541042743871	-0.07139207492032651	0.5857458841944099	0.009744910321731082	-0.0630040147180454	0.5662616638449355	0.012492908527740099	-0.05568105887816083	0.532190546471527	0.0006989198400715324	-0.05470933733236322	0.4622830810018609	-0.023011742144276925	-0.051989820119430985
47	1.599999999999993	0.5127218132247997	-0.002175170139996463	-0.15954350731621203	0.502641864152233	-0.008206542849443887	-0.13979465494615784	0.4793652086461452	-0.013587746953489521	-0.11984321512739997	0.4765002844634788	-0.024900275281771966	-0.07678849515096325	0.5797679429010889	0.03154054658896077	-0.15189064915465178	0.5644202228456695	0.03314583250681469	-0.14241064144250193	0.5430227977040398	0.032847584222372106	-0.12921704154447644	0.5083687757093904	0.021642240285066894	-0.10714499766899775	0.6023514931514675	0.03374816351710852	-0.12738887966066886	0.5861036211354311	0.03242176848604983	-0.11949918187354913	0.5600111666159825	0.030884379213397484	-0.10660616820820137	0.5206709096639316	0.021265746927885743	-0.087738894507353	0.6067855288748978	0.02731753773436074	-0.09892539832479888	0.5904471359563197	0.027495807250363935	-0.09130797508476371	0.5674093581900602	0.02743334610861836	-0.08185086806420949	0.5309874318997649	0.013024622808822661	-0.071823265550437	0.6015070034378299	0.0069232768409599466	-0.06943024311920237	0.5863908625381894	0.009921114156274058	-0.06197938707891265	0.5665172573974786	0.011744900773866807	-0.055458218465496145	0.5323697398090046	0.00015094284121952573	-0.05481741194175499	0.4622830810018608	-0.023011742144276925	-0.051989820119430985
48	1.6333333333333262	0.5091842924583332	0.00012663379735544655	-0.16099417341628186	0.5015436703191216	-0.006884367858744356	-0.14048888753424754	0.4791973085992284	-0.01303791591082648	-0.11971404784161935	0.4764768862144322	-0.02491086940580367	-0.07680108619418227	0.580396622636326	0.03246733742638219	-0.1518271074996409	0.5649276851457611	0.033089353455491466	-0.14242896571668562	0.5434854492574464	0.03187484924252637	-0.12936124469783317	0.5086993984905723	0.02116825475205797	-0.10724935648218901	0.6030622341237915	0.03496919037691859	-0.12653173497981327	0.5867187263415767	0.03250416439371595	-0.11912812773234102	0.5604742991317172	0.029845731929663777	-0.10673569749205071	0.5210209173216548	0.02068918407277054	-0.08787472678283564	0.6076010939948447	0.02841868228231259	-0.09794510179841834	0.5910550354960167	0.027459494633139236	-0.09085229507561582	0.5678499000736839	0.026459535786053534	-0.08186887972646648	0.5312430987809064	0.01250766573441231	-0.07186846697632332	0.6025269888015067	0.007735316892317656	-0.06778533351179952	0.5868891304728707	0.009840130388017787	-0.06115003796134874	0.5667608832634747	0.01101583886844304	-0.05529483575762456	0.5324802429133242	-0.00018674334964330352	-0.05482228964279187	0.4622830810018608	-0.023011742144276925	-0.051989820119430985
49	1.6666666666666594	0.506009675979002	0.0020900681912053853	-0.1618952299070489	0.5005211666821904	-0.005725460128856663	-0.14099561788248927	0.47897602815483287	-0.012513225345725298	-0.1195817614059541	0.4764895213715381	-0.02488531295711016	-0.0767957972102877	0.5808209310085666	0.03346367605826117	-0.15171916200925806	0.5652814095760734	0.03323701562941428	-0.142420135248404	0.5438265547481271	0.03122406347463813	-0.12947227592980098	0.5089832440286866	0.020761813675011176	-0.10733359662775747	0.603549261937254	0.03590586791877459	-0.12579177123615154	0.587176145806976	0.03263689601074593	-0.11877501337735756	0.5608466517635611	0.029111277317032003	-0.10678596394696836	0.5213085149780161	0.020213654302043804	-0.08797862587879163	0.6081389125607658	0.029348952357530544	-0.097049538390096	0.5914856439883482	0.02755703368992668	-0.09038187962980962	0.5681670957973086	0.025798704414487394	-0.08181837757625104	0.5314442962124369	0.01210043445470732	-0.07189294434851037	0.603214747588202	0.008423658690806413	-0.0663361107953343	0.5872264232027355	0.009835817094939303	-0.06038806136827557	0.5669205233608144	0.010527583842500743	-0.05509618935765015	0.5325594423650113	-0.00043274082898026034	-0.054830018556119964	0.462283081001861	-0.023011742144276925	-0.051989820119430985
